<svg width="40" height="40" viewBox="0 0 40 40" fill="none" xmlns="http://www.w3.org/2000/svg">
<g clip-path="url(#clip0_124_3)">
<path d="M10.1431 39.8584C8.59597 39.8412 7.06334 39.5574 5.61255 39.0196C4.55312 38.628 3.59459 38.0046 2.80706 37.1949C1.9952 36.4089 1.37086 35.4502 0.980392 34.3898C0.44304 32.9391 0.159679 31.4066 0.142745 29.8596C0.0239216 27.2878 0 26.5165 0 20C0 13.4835 0.0262745 12.7149 0.141569 10.1412C0.160558 8.59481 0.444268 7.06313 0.980392 5.61255C1.37276 4.55294 1.99622 3.59403 2.80549 2.80549C3.59205 1.99436 4.55102 1.3706 5.61137 0.980392C7.06217 0.442595 8.59479 0.158835 10.142 0.141569C12.7145 0.0239216 13.4871 0 20 0C26.5129 0 27.2851 0.0262745 29.8588 0.141569C31.4056 0.160424 32.9377 0.444135 34.3886 0.980392C35.4485 1.37111 36.4072 1.99466 37.1941 2.8051C38.0048 3.59225 38.6286 4.55121 39.0196 5.61137C39.5575 7.06214 39.8414 8.59477 39.8588 10.142C39.9765 12.7157 40.0004 13.4863 40.0004 20.0008C40.0004 26.5153 39.9765 27.2859 39.8588 29.8596C39.8402 31.4065 39.5563 32.9388 39.0196 34.3898C38.6136 35.442 37.9919 36.3976 37.1943 37.195C36.3967 37.9924 35.441 38.6139 34.3886 39.0196C32.9379 39.5575 31.4052 39.8414 29.858 39.8588C27.2867 39.9765 26.5137 40.0004 19.9992 40.0004C13.4847 40.0004 12.7141 39.9776 10.1427 39.8588" fill="url(#paint0_radial_124_3)"/>
<path d="M10.1431 39.8584C8.59597 39.8412 7.06334 39.5574 5.61255 39.0196C4.55312 38.628 3.59459 38.0046 2.80706 37.1949C1.9952 36.4089 1.37086 35.4502 0.980392 34.3898C0.44304 32.9391 0.159679 31.4066 0.142745 29.8596C0.0239216 27.2878 0 26.5165 0 20C0 13.4835 0.0262745 12.7149 0.141569 10.1412C0.160558 8.59481 0.444268 7.06313 0.980392 5.61255C1.37276 4.55294 1.99622 3.59403 2.80549 2.80549C3.59205 1.99436 4.55102 1.3706 5.61137 0.980392C7.06217 0.442595 8.59479 0.158835 10.142 0.141569C12.7145 0.0239216 13.4871 0 20 0C26.5129 0 27.2851 0.0262745 29.8588 0.141569C31.4056 0.160424 32.9377 0.444135 34.3886 0.980392C35.4485 1.37111 36.4072 1.99466 37.1941 2.8051C38.0048 3.59225 38.6286 4.55121 39.0196 5.61137C39.5575 7.06214 39.8414 8.59477 39.8588 10.142C39.9765 12.7157 40.0004 13.4863 40.0004 20.0008C40.0004 26.5153 39.9765 27.2859 39.8588 29.8596C39.8402 31.4065 39.5563 32.9388 39.0196 34.3898C38.6136 35.442 37.9919 36.3976 37.1943 37.195C36.3967 37.9924 35.441 38.6139 34.3886 39.0196C32.9379 39.5575 31.4052 39.8414 29.858 39.8588C27.2867 39.9765 26.5137 40.0004 19.9992 40.0004C13.4847 40.0004 12.7141 39.9776 10.1427 39.8588" fill="url(#paint1_radial_124_3)"/>
<path d="M15.089 20.0851C15.0891 19.1054 15.3797 18.1477 15.9241 17.3332C16.4684 16.5187 17.2421 15.8838 18.1472 15.509C19.0524 15.1342 20.0484 15.0362 21.0092 15.2274C21.9701 15.4187 22.8526 15.8905 23.5453 16.5834C24.238 17.2762 24.7096 18.1589 24.9006 19.1198C25.0916 20.0807 24.9934 21.0766 24.6184 21.9817C24.2433 22.8868 23.6083 23.6603 22.7937 24.2045C21.979 24.7486 21.0213 25.039 20.0416 25.0388C18.7279 25.0386 17.4682 24.5166 16.5394 23.5876C15.6106 22.6586 15.0889 21.3987 15.089 20.0851ZM12.411 20.0851C12.411 21.5943 12.8585 23.0696 13.697 24.3244C14.5354 25.5793 15.7272 26.5573 17.1215 27.1349C18.5158 27.7124 20.05 27.8635 21.5302 27.5691C23.0104 27.2747 24.37 26.5479 25.4372 25.4807C26.5044 24.4136 27.2311 23.054 27.5255 21.5738C27.82 20.0936 27.6688 18.5593 27.0913 17.165C26.5138 15.7707 25.5357 14.579 24.2809 13.7405C23.026 12.902 21.5508 12.4545 20.0416 12.4545C19.0395 12.4545 18.0472 12.6518 17.1214 13.0353C16.1956 13.4187 15.3544 13.9808 14.6458 14.6893C13.9372 15.3979 13.3752 16.2391 12.9917 17.1649C12.6083 18.0908 12.4109 19.083 12.411 20.0851ZM26.191 12.1522C26.1908 12.5048 26.2953 12.8496 26.4911 13.143C26.6869 13.4363 26.9652 13.6649 27.291 13.8C27.6168 13.9352 27.9753 13.9706 28.3212 13.902C28.6671 13.8333 28.9849 13.6636 29.2344 13.4144C29.4839 13.1651 29.6539 12.8475 29.7228 12.5016C29.7918 12.1557 29.7566 11.7972 29.6218 11.4713C29.487 11.1454 29.2586 10.8668 28.9654 10.6708C28.6723 10.4747 28.3276 10.37 27.9749 10.3698C27.5022 10.37 27.0489 10.5578 26.7145 10.892C26.3802 11.2262 26.1922 11.6794 26.1918 12.1522M14.0388 32.1812C13.0965 32.1708 12.163 31.9984 11.2792 31.6714C10.6383 31.4243 10.0561 31.0458 9.57032 30.5602C9.08449 30.0746 8.70574 29.4926 8.45842 28.8518C8.13127 27.968 7.95882 27.0345 7.94862 26.0922C7.87647 24.5259 7.86235 24.0553 7.86235 20.0871C7.86235 16.1188 7.87803 15.6494 7.94862 14.0816C7.96006 13.1394 8.13247 12.2061 8.45842 11.322C8.70545 10.6808 9.0841 10.0986 9.56994 9.6127C10.0558 9.12686 10.6381 8.74821 11.2792 8.50118C12.163 8.17404 13.0965 8.00159 14.0388 7.99138C15.6051 7.91923 16.0757 7.90511 20.0423 7.90511C24.009 7.90511 24.48 7.9204 26.0478 7.99178C26.99 8.00321 27.9234 8.17562 28.8074 8.50158C29.4486 8.74863 30.0308 9.12728 30.5167 9.61312C31.0025 10.099 31.3812 10.6812 31.6282 11.3224C31.9554 12.2061 32.1278 13.1397 32.138 14.082C32.2102 15.6506 32.2243 16.1188 32.2243 20.0875C32.2243 24.0561 32.2098 24.5251 32.138 26.0929C32.1271 27.0352 31.9546 27.9686 31.6282 28.8526C31.3809 29.4934 31.0022 30.0754 30.5163 30.561C30.0305 31.0466 29.4484 31.4251 28.8074 31.6722C27.9237 31.9993 26.9902 32.1718 26.0478 32.182C24.4816 32.2541 24.011 32.2682 20.0423 32.2682C16.0737 32.2682 15.6047 32.2537 14.0388 32.182M13.9157 5.3157C12.6827 5.33994 11.4627 5.57331 10.3078 6.00588C9.32058 6.3876 8.42399 6.9714 7.67553 7.71986C6.92708 8.46832 6.34327 9.36491 5.96156 10.3522C5.52904 11.5071 5.29567 12.727 5.27137 13.96C5.19804 15.5443 5.18156 16.051 5.18156 20.0867C5.18156 24.1224 5.19843 24.6286 5.27137 26.2133C5.29567 27.4463 5.52904 28.6663 5.96156 29.8212C6.34329 30.8084 6.9271 31.705 7.67556 32.4535C8.42401 33.2019 9.32059 33.7857 10.3078 34.1675C11.4628 34.5998 12.6827 34.8332 13.9157 34.8577C15.5008 34.9298 16.0067 34.9475 20.0423 34.9475C24.078 34.9475 24.5843 34.9306 26.169 34.8577C27.402 34.8333 28.6219 34.5999 29.7769 34.1675C30.7641 33.7857 31.6607 33.2019 32.4091 32.4535C33.1576 31.705 33.7414 30.8084 34.1231 29.8212C34.5562 28.6664 34.7896 27.4464 34.8133 26.2133C34.8855 24.6279 34.902 24.1224 34.902 20.0867C34.902 16.051 34.8851 15.5447 34.8133 13.96C34.7891 12.727 34.5557 11.5071 34.1231 10.3522C33.7414 9.3651 33.1578 8.46864 32.4095 7.72021C31.6613 6.97177 30.765 6.38786 29.778 6.00588C28.6232 5.57303 27.4032 5.33965 26.1702 5.3157C24.5855 5.24315 24.0792 5.22589 20.0443 5.22589C16.0094 5.22589 15.502 5.24276 13.9165 5.3157" fill="white"/>
</g>
<defs>
<radialGradient id="paint0_radial_124_3" cx="0" cy="0" r="1" gradientUnits="userSpaceOnUse" gradientTransform="translate(2.58863 39.1239) scale(50.7851)">
<stop offset="0.09" stop-color="#FA8F21"/>
<stop offset="0.78" stop-color="#D82D7E"/>
</radialGradient>
<radialGradient id="paint1_radial_124_3" cx="0" cy="0" r="1" gradientUnits="userSpaceOnUse" gradientTransform="translate(27.7067 37.8392) scale(44.6914)">
<stop offset="0.64" stop-color="#8C3AAA" stop-opacity="0"/>
<stop offset="1" stop-color="#8C3AAA"/>
</radialGradient>
<clipPath id="clip0_124_3">
<rect width="40" height="40" fill="white"/>
</clipPath>
</defs>
</svg>
