<svg width="62" height="62" viewBox="0 0 62 62" fill="none" xmlns="http://www.w3.org/2000/svg">
<g filter="url(#filter0_dd_124_20)">
<path d="M11.8607 18.9054C13.2138 12.3591 17.3772 8.713 23.8714 7.61156C28.672 6.7975 33.4745 6.7872 38.2671 7.63442C44.9538 8.81636 48.9735 12.6751 50.2541 19.3203C51.2435 24.456 51.259 29.6464 50.2386 34.7773C48.8696 41.2782 44.5989 45.2911 38.1287 46.3885C33.328 47.2025 28.5255 47.2128 23.7329 46.3657C17.0463 45.1836 13.0087 41.1323 11.7282 34.4871C10.6884 29.3175 10.7884 24.0943 11.8607 18.9053V18.9054Z" fill="#595BD4"/>
</g>
<path d="M11.8607 18.9054C13.2138 12.3591 17.3772 8.713 23.8714 7.61156C28.672 6.7975 33.4745 6.7872 38.2671 7.63442C44.9538 8.81636 48.9735 12.6751 50.2541 19.3203C51.2435 24.456 51.259 29.6464 50.2386 34.7773C48.8696 41.2782 44.5989 45.2911 38.1287 46.3885C33.328 47.2025 28.5255 47.2128 23.7329 46.3657C17.0463 45.1836 13.0087 41.1323 11.7282 34.4871C10.6884 29.3175 10.7884 24.0943 11.8607 18.9053V18.9054Z" fill="#53D86A"/>
<path fill-rule="evenodd" clip-rule="evenodd" d="M23.7567 23.667L25.4482 23.0428C25.4482 23.0428 26.752 25.6506 29.3261 28.2336C31.9001 30.8166 34.7496 32.2181 34.7496 32.2181L34.0195 33.9326C34.0195 33.9326 30.8105 32.0686 28.1575 29.4064C25.5045 26.7441 23.7567 23.667 23.7567 23.667ZM42.6725 31.7416C43.8182 32.3132 44.0673 33.8441 43.1626 34.752L39.2847 38.6434C39.0027 38.9266 38.658 39.1388 38.2786 39.2628C37.8993 39.3867 37.4961 39.4188 37.102 39.3565C36.8374 39.3144 36.5738 39.2667 36.3112 39.2133C33.9438 38.8908 29.2865 37.681 24.8098 33.1884C20.0841 28.4463 18.7366 23.1338 18.3562 20.7142C18.294 20.3187 18.326 19.9142 18.4495 19.5335C18.573 19.1528 18.7844 18.8069 19.0666 18.5239L22.9447 14.6324C23.8493 13.7245 25.375 13.9746 25.9446 15.1243L28.9376 21.1644L27.4417 21.9057L24.6677 16.2675C24.5066 15.94 24.0726 15.8682 23.8152 16.1265L20.6398 19.3129C20.4759 19.4774 20.3477 19.6742 20.2632 19.8909C20.1788 20.1076 20.1399 20.3395 20.1491 20.572C20.2033 21.9505 20.6098 24.5997 22.5926 27.7938C23.4072 29.013 24.465 30.3281 25.8397 31.7077C30.5952 36.4798 34.9029 37.4031 36.9722 37.5422C37.2542 37.5366 37.4758 37.5162 37.6306 37.4965C37.8353 37.4705 38.0344 37.4065 38.209 37.2964C38.3137 37.2303 38.4108 37.1526 38.4984 37.0649L41.6738 33.8784C41.9312 33.6201 41.8596 33.1846 41.5333 33.0229L35.9146 30.2391L36.6531 28.738L42.6725 31.7416Z" fill="white"/>
<defs>
<filter id="filter0_dd_124_20" x="0" y="0" width="62" height="62" filterUnits="userSpaceOnUse" color-interpolation-filters="sRGB">
<feFlood flood-opacity="0" result="BackgroundImageFix"/>
<feColorMatrix in="SourceAlpha" type="matrix" values="0 0 0 0 0 0 0 0 0 0 0 0 0 0 0 0 0 0 127 0" result="hardAlpha"/>
<feOffset dy="5"/>
<feGaussianBlur stdDeviation="4"/>
<feColorMatrix type="matrix" values="0 0 0 0 0 0 0 0 0 0 0 0 0 0 0 0 0 0 0.078125 0"/>
<feBlend mode="normal" in2="BackgroundImageFix" result="effect1_dropShadow_124_20"/>
<feColorMatrix in="SourceAlpha" type="matrix" values="0 0 0 0 0 0 0 0 0 0 0 0 0 0 0 0 0 0 127 0" result="hardAlpha"/>
<feOffset dy="4"/>
<feGaussianBlur stdDeviation="5.5"/>
<feColorMatrix type="matrix" values="0 0 0 0 0 0 0 0 0 0 0 0 0 0 0 0 0 0 0.210824 0"/>
<feBlend mode="normal" in2="effect1_dropShadow_124_20" result="effect2_dropShadow_124_20"/>
<feBlend mode="normal" in="SourceGraphic" in2="effect2_dropShadow_124_20" result="shape"/>
</filter>
</defs>
</svg>
