<svg width="40" height="40" viewBox="0 0 40 40" fill="none" xmlns="http://www.w3.org/2000/svg">
<g clip-path="url(#clip0_124_13)">
<path d="M34.1711 5.81282C30.4109 2.06655 25.4109 0.00228568 20.0837 0C9.10633 0 0.172936 8.89125 0.168542 19.8199C0.167263 23.3132 1.08407 26.7233 2.82667 29.7291L0.00134277 40L10.5586 37.2439C13.4673 38.8233 16.7424 39.6555 20.0752 39.6568H20.0836H20.0837C31.0594 39.6568 39.9941 30.764 39.9988 19.8359C40.0006 14.5394 37.9308 9.55935 34.1711 5.81282ZM20.0837 36.3092H20.0773C17.1066 36.3076 14.1934 35.5136 11.6525 34.0124L11.0477 33.6555L4.78284 35.2909L6.45549 29.2117L6.0615 28.5885C4.40443 25.9653 3.52964 22.9339 3.53088 19.8211C3.53452 10.7376 10.9596 3.34778 20.09 3.34778C24.5114 3.34961 28.667 5.06544 31.7924 8.17922C34.9176 11.293 36.6374 15.4323 36.6361 19.8345C36.6322 28.9183 29.2069 36.3092 20.0837 36.3092Z" fill="#E0E0E0"/>
<path d="M0.915527 38.8603L3.6118 29.0587C1.94837 26.1901 1.07361 22.9355 1.07466 19.6024C1.07902 9.17321 9.60442 0.688354 20.0795 0.688354C25.1635 0.69064 29.9352 2.66051 33.5229 6.23574C37.1113 9.81095 39.0863 14.5632 39.0842 19.6172C39.0799 30.0466 30.554 38.5322 20.0802 38.5322C20.0795 38.5322 20.0807 38.5322 20.0802 38.5322H20.0718C16.8912 38.5312 13.766 37.7363 10.9904 36.2302L0.915527 38.8603Z" fill="url(#paint0_linear_124_13)"/>
<path fill-rule="evenodd" clip-rule="evenodd" d="M15.1625 11.4054C14.794 10.5898 14.4061 10.5735 14.0556 10.5592C13.7689 10.547 13.4406 10.5477 13.1129 10.5477C12.785 10.5477 12.252 10.6704 11.8013 11.1605C11.3503 11.6505 10.0795 12.8352 10.0795 15.2446C10.0795 17.6543 11.8423 19.9826 12.088 20.3096C12.334 20.6361 15.491 25.7386 20.4907 27.7016C24.6459 29.333 25.4915 29.0085 26.3934 28.9268C27.2953 28.8452 29.3036 27.7424 29.7136 26.5988C30.1235 25.4554 30.1235 24.4754 30.0005 24.2705C29.8775 24.0664 29.5496 23.944 29.0576 23.6991C28.5657 23.4542 26.1474 22.2692 25.6965 22.106C25.2455 21.9427 24.9175 21.8611 24.5896 22.3514C24.2616 22.8412 23.3194 23.944 23.0325 24.2705C22.7455 24.5978 22.4585 24.6386 21.9666 24.3937C21.4746 24.148 19.8903 23.6315 18.0109 21.9631C16.5487 20.6652 15.5614 19.0621 15.2744 18.5718C14.9875 18.082 15.2437 17.8167 15.4904 17.5726C15.7113 17.3532 15.9824 17.0009 16.2284 16.7149C16.4738 16.429 16.5558 16.2249 16.7198 15.8984C16.8838 15.5713 16.8018 15.2854 16.6788 15.0405C16.5558 14.7956 15.5998 12.3737 15.1625 11.4054Z" fill="white"/>
<path d="M34.0083 5.74984C30.2913 2.04657 25.3487 0.00604148 20.0827 0.00372314C9.2313 0.00372314 0.400461 8.7929 0.396099 19.5961C0.39482 23.0494 1.3011 26.4202 3.02369 29.3916L0.230835 39.5445L10.6669 36.8201C13.5423 38.3812 16.7797 39.204 20.0743 39.2052H20.0826H20.0827C30.9323 39.2052 39.7645 30.4145 39.7691 19.6119C39.7709 14.3762 37.7249 9.45336 34.0083 5.74984ZM20.0827 35.8961H20.0763C17.1397 35.8946 14.26 35.1096 11.7482 33.6257L11.1504 33.2729L4.95743 34.8895L6.61086 28.8801L6.22139 28.2641C4.58335 25.671 3.71859 22.6743 3.71987 19.5974C3.72345 10.6181 11.0633 3.31313 20.0889 3.31313C24.4596 3.31493 28.5674 5.01107 31.657 8.0891C34.7463 11.1671 36.4464 15.2589 36.4451 19.6106C36.4412 28.5901 29.1011 35.8961 20.0827 35.8961Z" fill="white"/>
</g>
<defs>
<linearGradient id="paint0_linear_124_13" x1="19.9999" y1="38.8603" x2="19.9999" y2="0.688418" gradientUnits="userSpaceOnUse">
<stop stop-color="#20B038"/>
<stop offset="1" stop-color="#60D66A"/>
</linearGradient>
<clipPath id="clip0_124_13">
<rect width="40" height="40" fill="white"/>
</clipPath>
</defs>
</svg>
